<svg width="2737" height="500" viewBox="0 0 2737 500" fill="none" xmlns="http://www.w3.org/2000/svg">
<g clip-path="url(#clip0_901_12)">
<path d="M253.246 24.9062V200.319C253.246 232.191 270.44 261.549 298.242 277.142L445.257 359.498C453.443 364.071 463.686 364.345 472.465 359.315C478.456 355.931 482.754 350.124 484.949 343.63L487.647 335.811C489.11 331.604 489.842 327.214 489.842 322.733V203.337C489.842 198.718 488.836 194.145 486.915 189.984L486.687 189.481C483.76 183.171 479.05 177.775 472.831 174.665C463.594 170.047 453.123 170.55 444.709 175.351L362.673 222.131C354.03 227.07 343.65 227.984 334.276 224.6L330.938 223.411C322.524 220.393 315.573 213.809 312.967 205.257C309.08 192.499 314.521 179.375 325.359 172.973L422.348 115.448C428.704 111.698 433.048 104.747 433.094 96.4248C433.139 91.0289 430.899 85.9073 427.423 81.7918C425.64 79.6883 423.491 77.9506 421.067 76.5788L288.274 2.95675C281.872 -0.564303 274.052 -1.06731 267.01 2.13365C258.368 6.02053 253.246 15.1204 253.246 24.5861V24.9062Z" fill="black"/>
<path d="M236.55 24.9062V200.319C236.55 232.191 219.356 261.549 191.554 277.142L44.5389 359.498C36.3994 364.071 26.2021 364.345 17.4223 359.406C11.432 356.023 7.08782 350.307 4.89288 343.767L2.19494 335.856C0.777373 331.65 0 327.26 0 322.824V203.428C0 198.81 1.00601 194.237 2.92658 190.076L3.15522 189.573C6.0818 183.262 10.7918 177.866 16.965 174.757C26.2021 170.138 36.6737 170.641 45.0877 175.443L127.123 222.222C135.766 227.161 146.146 228.076 155.52 224.692L158.859 223.503C167.272 220.485 174.223 213.9 176.83 205.349C180.716 192.591 175.275 179.467 164.437 173.065L67.4486 115.539C61.6869 112.155 57.6171 106.165 56.794 98.8941C56.1081 92.7208 58.3487 86.5932 62.3728 81.8833C64.1562 79.7798 66.3054 77.9964 68.6832 76.6703L201.523 2.95675C207.925 -0.564303 215.744 -1.06731 222.786 2.13365C231.429 6.02053 236.55 15.1204 236.55 24.5861V24.9062Z" fill="black"/>
<path d="M200.792 289.21C228.137 272.885 262.204 272.565 289.824 288.479L435.924 372.435C443.195 376.642 448.362 384.004 449.551 392.83C450.603 400.695 447.859 408.606 442.738 414.642L437.387 420.998C434.507 424.382 431.123 427.263 427.282 429.55L324.76 490.779C320.827 493.157 316.392 494.62 311.819 495.123L311.179 495.215C304.274 495.947 297.186 494.666 291.378 490.916C282.69 485.338 277.797 476.101 277.614 466.452L275.694 372.069C275.511 362.101 270.938 352.727 263.256 346.416L260.512 344.175C253.607 338.505 244.416 335.899 235.728 338.048C222.787 341.249 214.327 352.635 214.373 365.21L214.693 478.021C214.693 486.389 209.937 494.666 200.883 498.462C196.95 500.108 192.561 500.336 188.354 499.605C185.656 499.148 183.095 498.233 180.717 496.861L49.9354 420.861C47.6033 419.535 45.4083 417.889 43.6707 415.877C33.6563 404.399 36.7658 387.343 49.2037 379.935L200.929 289.302L200.792 289.21Z" fill="black"/>
<path d="M925.213 500C890.969 500 859.543 493.932 830.934 481.795C802.326 469.224 777.402 451.886 756.162 429.779C735.356 407.239 719.101 380.798 707.397 350.455C695.694 320.113 689.842 286.736 689.842 250.325C689.842 213.914 695.694 180.537 707.397 150.195C719.101 119.853 735.356 93.4114 756.162 70.8713C777.402 48.3312 802.326 30.9926 830.934 18.8556C859.543 6.28521 890.969 0 925.213 0C958.156 0 987.632 5.85176 1013.64 17.5553C1040.08 29.2588 1062.19 44.43 1079.96 63.0689C1098.16 81.2744 1111.17 100.563 1118.97 120.936L1070.21 142.393C1058.07 114.218 1039.43 91.6775 1014.29 74.7724C989.582 57.4339 959.89 48.7646 925.213 48.7646C889.669 48.7646 858.026 57.2172 830.284 74.1222C802.542 91.0273 780.869 114.651 765.265 144.993C749.66 174.902 741.857 210.013 741.857 250.325C741.857 290.204 749.66 325.314 765.265 355.657C780.869 385.999 802.542 409.623 830.284 426.528C858.026 443 889.669 451.235 925.213 451.235C959.89 451.235 989.582 442.783 1014.29 425.878C1039.43 408.973 1058.07 386.433 1070.21 358.257L1118.97 379.714C1111.17 399.653 1098.16 418.942 1079.96 437.581C1062.19 455.787 1040.08 470.741 1013.64 482.445C987.632 494.148 958.156 500 925.213 500Z" fill="black"/>
<path d="M1361.81 500C1328.87 500 1298.96 492.198 1272.08 476.593C1245.21 460.555 1223.75 438.882 1207.71 411.573C1192.11 383.832 1184.31 352.406 1184.31 317.295C1184.31 282.618 1192.11 251.625 1207.71 224.317C1223.32 197.009 1244.34 175.553 1270.78 159.948C1297.66 143.91 1328 135.891 1361.81 135.891C1395.62 135.891 1425.75 143.693 1452.19 159.298C1479.06 174.902 1500.08 196.359 1515.26 223.667C1530.86 250.975 1538.66 282.185 1538.66 317.295C1538.66 352.839 1530.64 384.482 1514.61 412.224C1498.57 439.532 1477.11 460.988 1450.24 476.593C1423.79 492.198 1394.32 500 1361.81 500ZM1361.81 451.235C1385.22 451.235 1406.24 445.384 1424.88 433.68C1443.95 421.977 1458.91 405.938 1469.74 385.566C1481.01 365.193 1486.65 342.436 1486.65 317.295C1486.65 292.154 1481.01 269.614 1469.74 249.675C1458.91 229.736 1443.95 213.914 1424.88 202.211C1406.24 190.507 1385.22 184.655 1361.81 184.655C1338.4 184.655 1317.16 190.507 1298.09 202.211C1279.45 213.914 1264.5 229.736 1253.23 249.675C1241.96 269.614 1236.32 292.154 1236.32 317.295C1236.32 342.436 1241.96 365.193 1253.23 385.566C1264.5 405.938 1279.45 421.977 1298.09 433.68C1317.16 445.384 1338.4 451.235 1361.81 451.235Z" fill="black"/>
<path d="M1624.67 492.198V143.693H1673.43V200.91L1666.93 192.458C1675.16 175.986 1687.52 162.982 1703.99 153.446C1720.9 143.91 1741.27 139.142 1765.11 139.142H1787.22V187.906H1756.66C1731.52 187.906 1711.36 195.709 1696.19 211.313C1681.02 226.918 1673.43 249.025 1673.43 277.633V492.198H1624.67Z" fill="black"/>
<path d="M1977.65 496.099C1946.44 496.099 1922.38 486.996 1905.48 468.791C1888.57 450.585 1880.12 424.577 1880.12 390.767V192.458H1815.75V143.693H1832.01C1846.75 143.693 1858.45 138.925 1867.12 129.389C1875.79 119.419 1880.12 107.065 1880.12 92.3277V63.0689H1928.89V143.693H2005.61V192.458H1928.89V390.767C1928.89 402.471 1930.62 412.874 1934.09 421.977C1937.56 430.646 1943.41 437.581 1951.64 442.783C1960.31 447.984 1971.8 450.585 1986.1 450.585C1989.57 450.585 1993.69 450.368 1998.46 449.935C2003.23 449.502 2007.34 449.068 2010.81 448.635V492.198C2005.61 493.498 1999.76 494.365 1993.26 494.798C1986.75 495.665 1981.55 496.099 1977.65 496.099Z" fill="black"/>
<path d="M2242.39 500C2209.88 500 2180.4 492.198 2153.96 476.593C2127.95 460.555 2107.36 438.665 2092.19 410.923C2077.02 383.182 2069.44 351.756 2069.44 316.645C2069.44 281.534 2076.8 250.542 2091.54 223.667C2106.28 196.359 2126.22 174.902 2151.36 159.298C2176.93 143.693 2205.54 135.891 2237.19 135.891C2262.33 135.891 2284.65 140.659 2304.16 150.195C2324.1 159.298 2341 171.868 2354.87 187.906C2368.74 203.511 2379.36 221.283 2386.73 241.222C2394.1 260.728 2397.78 280.884 2397.78 301.69C2397.78 306.025 2397.57 311.01 2397.13 316.645C2396.7 321.847 2396.05 327.265 2395.18 332.9H2100.65V287.386H2367.23L2343.82 306.892C2347.72 283.052 2344.9 261.812 2335.37 243.173C2326.26 224.101 2313.04 209.146 2295.7 198.309C2278.37 187.039 2258.86 181.404 2237.19 181.404C2215.51 181.404 2195.36 187.039 2176.72 198.309C2158.51 209.58 2144.21 225.401 2133.81 245.774C2123.4 265.713 2119.28 289.554 2121.45 317.295C2119.28 345.037 2123.62 369.311 2134.46 390.117C2145.73 410.49 2160.9 426.311 2179.97 437.581C2199.48 448.851 2220.28 454.486 2242.39 454.486C2267.96 454.486 2289.42 448.418 2306.76 436.281C2324.1 424.144 2338.18 408.973 2349.02 390.767L2390.63 412.874C2383.7 428.479 2373.08 443 2358.77 456.437C2344.47 469.441 2327.35 480.061 2307.41 488.296C2287.9 496.099 2266.23 500 2242.39 500Z" fill="black"/>
<path d="M2434.5 492.198L2556.74 317.945L2435.15 143.693H2494.97L2602.9 300.39H2569.74L2677.02 143.693H2736.84L2615.26 317.945L2736.84 492.198H2677.02L2569.74 335.501H2602.9L2494.97 492.198H2434.5Z" fill="black"/>
</g>
<defs>
<clipPath id="clip0_901_12">
<rect width="2736.84" height="500.001" fill="white"/>
</clipPath>
</defs>
</svg>
